{"title":"Dancer.and.the.Dame.2015.BRRip.XViD-Shelby","uid":12152819,"size":769164635,"categoryP":"video","categoryS":"movies","magnet":"?xt=urn:btih:d87c02a6f61f9a32959cf32df5f5d076b677a509&amp;dn=Dancer.and.the.Dame.2015.BRRip.XViD-Shelby&amp;tr=udp%3A%2F%2Ftracker.openbittorrent.com%3A80&amp;tr=udp%3A%2F%2Fopen.demonii.com%3A1337&amp;tr=udp%3A%2F%2Ftracker.coppersurfer.tk%3A6969&amp;tr=udp%3A%2F%2Fexodus.desync.com%3A6969","seeders":2,"leechers":0,"uploader":null,"files":2,"time":1437680437,"description":"Dancer and the Dame 2015 BRRip XViD-Shelby\n\nGeneral\nComplete name                            : Dancer.and.the.Dame.2015.BRRip.XViD-Shelby.avi\nFormat                                   : AVI\nFormat/Info                              : Audio Video Interleave\nFile size                                : 734 MiB\nDuration                                 : 1h 30mn\nOverall bit rate                         : 1 139 Kbps\nWriting application                      : Lavf55.19.104\n\nVideo\nID                                       : 0\nFormat                                   : MPEG-4 Visual\nFormat profile                           : Simple@L3\nFormat settings, BVOP                    : No\nFormat settings, QPel                    : No\nFormat settings, GMC                     : No warppoints\nFormat settings, Matrix                  : Default (H.263)\nCodec ID                                 : XVID\nCodec ID/Hint                            : XviD\nDuration                                 : 1h 30mn\nBit rate                                 : 998 Kbps\nWidth                                    : 720 pixels\nHeight                                   : 400 pixels\nDisplay aspect ratio                     : 16:9\nFrame rate                               : 23.976 fps\nColor space                              : YUV\nChroma subsampling                       : 4:2:0\nBit depth                                : 8 bits\nScan type                                : Progressive\nCompression mode                         : Lossy\nBits/(Pixel*Frame)                       : 0.145\nStream size                              : 643 MiB (88%)\nWriting library                          : XviD 64\n\nAudio\nID                                       : 1\nFormat                                   : MPEG Audio\nFormat version                           : Version 1\nFormat profile                           : Layer 3\nMode                                     : Joint stereo\nCodec ID                                 : 55\nCodec ID/Hint                            : MP3\nDuration                                 : 1h 30mn\nBit rate mode                            : Constant\nBit rate                                 : 128 Kbps\nChannel count                            : 2 channels\nSampling rate                            : 48.0 KHz\nCompression mode                         : Lossy\nStream size                              : 82.5 MiB (11%)\nAlignment                                : Aligned on interleaves\nInterleave, duration                     : 24 ms (0.58 video frame)\nWriting library                          : LAME3.99.5\n\n\n\nComedy\n\nBilly Gardell is Rick Dancer, a wisecracking, disgruntled detective who is long past his prime. Only with the help of Princess, a fussy and fastidious canine cop, can Dancer break the case of his career.\n\n\nDirector: Gabriel Sabloff \n\nWriter: Tommy Blaze \n\nStars: Billy Gardell, David A.R. White, Mike Starr \n &lt;a href=&quot;\nhttp://www.imdb.com/title/tt3915566/&quot; rel=&quot;nofollow&quot; target=&quot;_NEW&quot;&gt;\nhttp://www.imdb.com/title/tt3915566/&lt;/a&gt;","torrent":{"xt":"urn:btih:d87c02a6f61f9a32959cf32df5f5d076b677a509","amp;dn":"Dancer.and.the.Dame.2015.BRRip.XViD-Shelby","amp;tr":["udp%3A%2F%2Ftracker.openbittorrent.com%3A80","udp%3A%2F%2Fopen.demonii.com%3A1337","udp%3A%2F%2Ftracker.coppersurfer.tk%3A6969","udp%3A%2F%2Fexodus.desync.com%3A6969"],"infoHash":"d87c02a6f61f9a32959cf32df5f5d076b677a509","infoHashBuffer":{"type":"Buffer","data":[216,124,2,166,246,31,154,50,149,156,243,45,245,245,208,118,182,119,165,9]},"announce":[],"urlList":[]}}